<svg id="OBJECTS" xmlns="http://www.w3.org/2000/svg" viewBox="0 0 82 63"><defs><style>.cls-1{fill:#f0f0f0;}</style></defs><path class="cls-1" d="M77.23,10.34H9.65A7.24,7.24,0,0,0,2.44,17.6V66.07a7.25,7.25,0,0,0,7.21,7.27H77.23a7.25,7.25,0,0,0,7.21-7.27V17.6A7.24,7.24,0,0,0,77.23,10.34ZM66.79,15.18,43.44,32.75,20.09,15.18Zm-57.14,0h2.4L42,37.72a2.4,2.4,0,0,0,2.88,0L74.83,15.18h2.4a2.41,2.41,0,0,1,2.4,2.42L43.44,44.87,7.24,17.6a2.42,2.42,0,0,1,2.41-2.42ZM42,49.83a2.36,2.36,0,0,0,2.88,0L70,30.89v37.6H16.85V30.89ZM7.24,66.07V23.65l4.81,3.62V68.49H9.65A2.42,2.42,0,0,1,7.24,66.07Zm70,2.42h-2.4V27.27l4.8-3.62V66.07A2.41,2.41,0,0,1,77.23,68.49Z" transform="translate(-2.44 -10.34)"/></svg>