<svg id="OBJECTS" xmlns="http://www.w3.org/2000/svg" viewBox="0 0 66 66"><defs><style>.cls-1{fill:#f0f0f0;}</style></defs><path class="cls-1" d="M67.88,48c4.77-21.47-14-41-36.13-37.24-12-7.44-28,1-28,15.24a17.79,17.79,0,0,0,2.5,9.11C1.85,56.67,20.82,75.9,42.89,71.9A18.44,18.44,0,0,0,51.52,74C65.13,74,73.84,59.92,67.88,48ZM37.05,62.7c-6.44,0-12.74-1.55-16.46-6.87C15,48,22.36,44.06,26,47.05c3,2.53,2.06,8.64,10.86,8.64,3.88,0,8.67-1.66,8.67-5.5,0-7.74-17.17-4.08-24-12.52a10.35,10.35,0,0,1,.1-12.5c5.37-6.9,21.12-7.33,27.89-2.11C55.72,27.9,54,34.32,49,34.32c-6.07,0-2.88-7.94-12.68-7.94-7.1,0-9.89,5.05-4.89,7.51,6.65,3.31,24.06,2.28,24.06,15.41,0,9.23-8.93,13.4-18.43,13.4Z" transform="translate(-3.79 -8.04)"/></svg>