<svg id="OBJECTS" xmlns="http://www.w3.org/2000/svg" viewBox="0 0 73 73"><defs><style>.cls-1{fill:#f0f0f0;fill-rule:evenodd;}</style></defs><path class="cls-1" d="M64.8,15.93A36.38,36.38,0,0,0,2.74,41.49,35.9,35.9,0,0,0,7.6,59.57L2.44,78.32l19.27-5a36.43,36.43,0,0,0,17.37,4.4h0A36.32,36.32,0,0,0,75.44,41.52,35.83,35.83,0,0,0,64.8,15.93ZM39.09,71.58h0A30.27,30.27,0,0,1,23.7,67.39l-1.1-.65-11.43,3,3.05-11.09-.72-1.14a29.87,29.87,0,0,1-4.62-16A30.24,30.24,0,0,1,60.46,20.24,29.82,29.82,0,0,1,69.3,41.51,30.19,30.19,0,0,1,39.09,71.58ZM55.66,49.06c-.91-.45-5.37-2.64-6.2-2.94s-1.44-.45-2.05.45-2.34,3-2.87,3.55-1.06.68-2,.22a24.67,24.67,0,0,1-7.3-4.48,27.55,27.55,0,0,1-5.06-6.26c-.53-.91,0-1.35.4-1.85a24.4,24.4,0,0,0,2.27-3.09,1.65,1.65,0,0,0-.07-1.58c-.23-.45-2.05-4.9-2.8-6.71S28.52,24.84,28,24.81s-1.13,0-1.74,0a3.36,3.36,0,0,0-2.42,1.13,10.15,10.15,0,0,0-3.18,7.54c0,4.45,3.26,8.75,3.71,9.35s6.4,9.74,15.52,13.65A53.17,53.17,0,0,0,45,58.36a12.5,12.5,0,0,0,5.72.35c1.75-.26,5.38-2.18,6.13-4.29a7.47,7.47,0,0,0,.53-4.3c-.22-.38-.83-.6-1.74-1.06Z" transform="translate(-2.44 -5.32)"/></svg>